<svg xmlns="http://www.w3.org/2000/svg" viewBox="0 0 24 24" fill="url(#flame)">
  <defs>
    <linearGradient id="flame" x1="0" y1="0" x2="0" y2="1">
      <stop offset="0%" stop-color="#ff7a00"/>
      <stop offset="50%" stop-color="#ff4500"/>
      <stop offset="100%" stop-color="#b22222"/>
    </linearGradient>
  </defs>
  <path d="M12 2c-1.6 2.2-3.8 3.9-4.1 6.9-.2 2 1.2 3.8 3.1 4.4-1.3-.6-2.1-2-1.9-3.4.2-1.4 1.3-2.7 2.7-3.1.2.7.2 1.3 0 2 .7-.5 1.3-1.3 1.4-2.2.1-.8-.1-1.7-.7-2.4 2.5 1.1 4.3 3.3 4.3 6 0 2.8-2.2 5.1-5.1 5.1-.6 0-1.2-.1-1.8-.3.9 2.2 3 3.8 5.5 4-2.2 1.6-5.2 2.2-7.8 1.2C4.3 18.2 2 14.5 2 10.3 2 6.6 4 3.5 7 2c-.6 1.4-.8 3-.5 4.5C7.7 4.4 9.6 2.8 12 2z"/>
</svg>
